<svg viewBox="0 0 72 72" xmlns="http://www.w3.org/2000/svg"><path d="m53.9081 63.031h-35.8991c-.5523 0-1-.4477-1-1v-48.9635c0-.5523.4477-1 1-1h35.8991c.5523 0 1 .4477 1 1v48.9635c0 .5523-.4477 1-1 1z" fill="#d0cfce"/><circle cx="36.0239" cy="45.0155" fill="#fff" r="12"/><path d="m24.0239 45.0155c0 6.6274 5.3726 12 12 12s12-5.3726 12-12" fill="#92d3f5"/><path d="m17 17.0086h16v9.9501h-16z" fill="#9b9b9a"/><circle cx="36.0239" cy="45.0155" fill="#d0cfce" r="7"/><path d="m29.0239 45.0155c0 3.866 3.134 7 7 7s7-3.134 7-7" fill="#61b2e4"/><g fill="none" stroke="#000" stroke-miterlimit="10" stroke-width="2"><circle cx="36.0239" cy="45.0155" r="12"/><circle cx="36.0239" cy="45.0155" r="7"/><path d="m53.9081 63.031h-35.8991c-.5523 0-1-.4477-1-1v-48.9635c0-.5523.4477-1 1-1h35.8991c.5523 0 1 .4477 1 1v48.9635c0 .5523-.4477 1-1 1z" stroke-linecap="round" stroke-linejoin="round"/><path d="m17 17.0086h16v9.9501h-16z" stroke-linecap="round" stroke-linejoin="round"/><path d="m37 19h7" stroke-linecap="round" stroke-linejoin="round"/><path d="m37 23h7" stroke-linecap="round" stroke-linejoin="round"/><path d="m23 21h4" stroke-linecap="round" stroke-linejoin="round"/></g><circle cx="49" cy="21" r="2"/></svg>