<svg enable-background="new 0 0 64 64" viewBox="0 0 64 64" xmlns="http://www.w3.org/2000/svg"><circle cx="32" cy="32" fill="#4f5d73" r="32"/><path d="m26.3 55c-1.6 0-4-1-5.1-2.1l-8.1-8.1c-1.1-1.1-2.1-3.5-2.1-5.1v-11.4c0-1.6 1-4 2.1-5.1l8.1-8.1c1.2-1.2 3.5-2.1 5.1-2.1h11.4c1.7 0 4 1 5.1 2.1l8.1 8.1c1.2 1.2 2.1 3.5 2.1 5.1v11.4c0 1.7-1 4-2.1 5.1l-8.1 8.1c-1.1 1.1-3.5 2.1-5.1 2.1z" fill="#231f20" opacity=".2"/><path d="m26.3 53c-1.6 0-4-1-5.1-2.1l-8.1-8.1c-1.1-1.1-2.1-3.5-2.1-5.1v-11.4c0-1.6 1-4 2.1-5.1l8.1-8.1c1.2-1.2 3.5-2.1 5.1-2.1h11.4c1.7 0 4 1 5.1 2.1l8.1 8.1c1.2 1.2 2.1 3.5 2.1 5.1v11.4c0 1.7-1 4-2.1 5.1l-8.1 8.1c-1.1 1.1-3.5 2.1-5.1 2.1z" fill="#c75c5c"/><path d="m45 34c0 2.2-1.8 4-4 4h-18c-2.2 0-4-1.8-4-4v-4c0-2.2 1.8-4 4-4h18c2.2 0 4 1.8 4 4z" fill="#fff"/></svg>